<?xml version="1.0" standalone="no"?>
<svg viewBox="0 0 200 200" xmlns="http://www.w3.org/2000/svg">
  <path fill="#880088" d="M29,-53.2C39.2,-44.3,50.3,-39.9,54.5,-31.7C58.7,-23.6,56,-11.8,53,-1.7C50,8.4,46.7,16.7,43.2,26.1C39.8,35.5,36.1,45.9,28.9,52.4C21.7,58.8,10.8,61.3,1,59.7C-8.9,58,-17.9,52.2,-31.2,49.3C-44.5,46.4,-62.3,46.3,-71.1,38.5C-79.9,30.8,-79.7,15.4,-73.4,3.6C-67.1,-8.1,-54.7,-16.3,-46,-24.2C-37.3,-32.1,-32.4,-39.9,-25.4,-50.7C-18.3,-61.4,-9.2,-75.2,0.1,-75.4C9.4,-75.6,18.8,-62.2,29,-53.2Z" transform="translate(100 100)" />
</svg>
