<svg xmlns="http://www.w3.org/2000/svg" xmlns:xlink="http://www.w3.org/1999/xlink" width="500" zoomAndPan="magnify" viewBox="0 0 375 374.999991" height="500" preserveAspectRatio="xMidYMid meet" version="1.0"><defs><clipPath id="id1"><path d="M 104.789062 101 L 263 101 L 263 211 L 104.789062 211 Z M 104.789062 101 " clip-rule="nonzero"/></clipPath><clipPath id="id2"><path d="M 262 209 L 270.539062 209 L 270.539062 211 L 262 211 Z M 262 209 " clip-rule="nonzero"/></clipPath></defs><path fill="#8da2ab" d="M 174.640625 112.128906 C 178.140625 112.097656 181.582031 112.546875 184.960938 113.480469 C 185.148438 109.945312 183.105469 106.242188 179.820312 104.222656 C 177.515625 102.804688 172.726562 101.074219 165.925781 104.683594 C 169.550781 106.003906 172.566406 108.625 174.640625 112.128906 Z M 174.640625 112.128906 " fill-opacity="1" fill-rule="nonzero"/><path fill="#8da2ab" d="M 180.246094 185.269531 L 180.058594 185.269531 C 173.601562 185.269531 172.085938 196.074219 172.070312 196.195312 C 172.058594 196.371094 171.984375 196.519531 171.847656 196.632812 C 171.707031 196.746094 171.550781 196.789062 171.371094 196.765625 C 171.195312 196.742188 171.054688 196.660156 170.949219 196.511719 C 170.847656 196.367188 170.8125 196.207031 170.847656 196.03125 C 170.898438 195.640625 171.9375 188.265625 176.164062 185.269531 L 171.785156 185.269531 C 171.613281 185.269531 171.46875 185.210938 171.347656 185.089844 C 171.226562 184.96875 171.167969 184.824219 171.167969 184.652344 L 171.167969 175.824219 C 171.167969 175.65625 171.226562 175.511719 171.347656 175.390625 C 171.46875 175.269531 171.613281 175.207031 171.785156 175.207031 L 177.453125 175.207031 L 167.554688 170.417969 C 167.390625 170.351562 167.277344 170.234375 167.214844 170.066406 C 167.148438 169.902344 167.15625 169.738281 167.234375 169.578125 C 167.3125 169.417969 167.433594 169.3125 167.605469 169.257812 C 167.773438 169.207031 167.9375 169.222656 168.089844 169.308594 L 179.074219 174.628906 C 179.394531 174.785156 179.730469 174.90625 180.074219 174.996094 C 180.417969 175.089844 180.765625 175.148438 181.121094 175.175781 C 181.476562 175.203125 181.832031 175.199219 182.183594 175.160156 C 182.539062 175.121094 182.886719 175.050781 183.226562 174.945312 C 183.566406 174.84375 183.894531 174.710938 184.210938 174.546875 C 184.527344 174.382812 184.824219 174.191406 185.105469 173.972656 C 185.386719 173.753906 185.644531 173.511719 185.878906 173.242188 C 186.117188 172.976562 186.324219 172.691406 186.507812 172.382812 C 186.699219 172.066406 186.855469 171.734375 186.980469 171.386719 C 187.105469 171.035156 187.195312 170.679688 187.25 170.3125 C 187.308594 169.945312 187.328125 169.578125 187.308594 169.207031 C 187.292969 168.839844 187.242188 168.472656 187.15625 168.113281 C 187.066406 167.753906 186.945312 167.40625 186.789062 167.070312 C 186.636719 166.734375 186.449219 166.414062 186.230469 166.117188 C 186.015625 165.816406 185.769531 165.539062 185.5 165.289062 C 185.226562 165.035156 184.933594 164.8125 184.617188 164.617188 L 174.148438 158.046875 C 173.996094 157.960938 173.898438 157.832031 173.855469 157.664062 C 173.8125 157.492188 173.839844 157.332031 173.929688 157.183594 C 174.023438 157.035156 174.15625 156.941406 174.328125 156.90625 C 174.5 156.871094 174.660156 156.902344 174.804688 157 L 180.53125 160.597656 C 180.578125 160.589844 180.625 160.589844 180.667969 160.597656 C 188.675781 161.390625 195.113281 159.664062 199.285156 155.597656 C 200.785156 154.144531 201.9375 152.453125 202.75 150.53125 C 202.015625 150.851562 201.242188 151.011719 200.4375 151.011719 C 198.894531 151.003906 197.527344 150.503906 196.339844 149.519531 C 196.207031 149.410156 196.136719 149.269531 196.121094 149.101562 C 196.105469 148.929688 196.152344 148.78125 196.261719 148.648438 C 196.371094 148.519531 196.507812 148.445312 196.679688 148.429688 C 196.847656 148.414062 197 148.460938 197.128906 148.570312 C 198.972656 150.113281 202.019531 150.375 203.925781 148.148438 C 204.90625 146.996094 204.699219 142.445312 204.332031 139.742188 C 202.847656 137.667969 201.96875 135.011719 201.046875 132.183594 C 199.566406 127.675781 197.886719 122.570312 193.253906 118.886719 C 187.003906 113.917969 178.078125 113.414062 175.296875 113.378906 C 176.339844 115.480469 177.03125 117.695312 177.371094 120.015625 C 177.398438 120.183594 177.359375 120.335938 177.257812 120.472656 C 177.160156 120.609375 177.023438 120.691406 176.855469 120.714844 C 176.6875 120.742188 176.535156 120.703125 176.398438 120.601562 C 176.261719 120.503906 176.179688 120.367188 176.15625 120.199219 C 175.027344 112.738281 170.457031 107.085938 164.234375 105.421875 C 159.78125 104.234375 155.027344 105.210938 150.851562 108.171875 C 146.675781 111.128906 143.523438 115.792969 142.066406 121.226562 C 140.609375 126.660156 141.007812 132.238281 143.175781 136.921875 C 145.339844 141.605469 148.957031 144.777344 153.410156 145.964844 C 155.503906 146.523438 157.617188 146.609375 159.75 146.226562 C 159.917969 146.199219 160.070312 146.234375 160.210938 146.332031 C 160.351562 146.429688 160.433594 146.558594 160.464844 146.726562 C 160.492188 146.894531 160.457031 147.050781 160.359375 147.1875 C 160.261719 147.328125 160.128906 147.410156 159.960938 147.441406 C 159.03125 147.605469 158.097656 147.6875 157.152344 147.691406 C 155.777344 147.691406 154.425781 147.511719 153.097656 147.15625 C 148.898438 146.035156 145.382812 143.265625 143.023438 139.269531 C 142.984375 139.367188 142.921875 139.449219 142.839844 139.511719 C 142.773438 139.566406 135.746094 145.105469 130 155.074219 C 124.707031 164.25 119.441406 179.175781 124.398438 198.167969 C 126.601562 206.613281 133.59375 208.230469 142.503906 209.460938 L 163.164062 209.460938 C 167.933594 208.976562 172.664062 208.238281 177.355469 207.246094 C 182.910156 206.042969 184.855469 199.058594 184.3125 193.0625 C 183.894531 188.617188 182.191406 185.332031 180.246094 185.269531 Z M 180.246094 185.269531 " fill-opacity="1" fill-rule="nonzero"/><path fill="#8da2ab" d="M 122.917969 197.304688 C 122.421875 196.558594 121.734375 196.128906 120.847656 196.019531 C 119.890625 195.890625 119.050781 196.140625 118.324219 196.769531 C 116.882812 198.011719 116.242188 200.589844 116.871094 202.640625 C 117.460938 204.578125 119.097656 206.046875 120.949219 206.292969 C 122.675781 206.519531 124.574219 205.738281 126.035156 204.199219 C 124.660156 202.503906 123.71875 200.597656 123.207031 198.480469 C 123.101562 198.089844 123.011719 197.695312 122.917969 197.304688 Z M 122.917969 197.304688 " fill-opacity="1" fill-rule="nonzero"/><path fill="#ff8383" d="M 238.898438 174.609375 L 238.898438 170.777344 L 194.121094 170.777344 C 194.199219 171.308594 194.363281 171.808594 194.621094 172.28125 C 194.875 172.753906 195.207031 173.164062 195.609375 173.515625 C 196.015625 173.867188 196.46875 174.140625 196.972656 174.328125 C 197.476562 174.515625 197.996094 174.609375 198.53125 174.609375 Z M 238.898438 174.609375 " fill-opacity="1" fill-rule="nonzero"/><path fill="#ff8383" d="M 240.132812 170.164062 L 240.132812 172.941406 L 256.300781 145.054688 C 256.484375 144.738281 256.632812 144.410156 256.753906 144.066406 C 256.875 143.722656 256.960938 143.371094 257.015625 143.011719 C 257.066406 142.652344 257.085938 142.289062 257.070312 141.925781 C 257.054688 141.5625 257.003906 141.207031 256.921875 140.851562 C 256.835938 140.496094 256.722656 140.15625 256.574219 139.824219 C 256.421875 139.492188 256.246094 139.175781 256.035156 138.878906 C 255.828125 138.582031 255.59375 138.304688 255.332031 138.050781 C 255.070312 137.800781 254.789062 137.574219 254.484375 137.375 L 236.238281 169.550781 L 239.527344 169.550781 C 239.695312 169.554688 239.835938 169.617188 239.953125 169.734375 C 240.070312 169.851562 240.128906 169.996094 240.132812 170.164062 Z M 240.132812 170.164062 " fill-opacity="1" fill-rule="nonzero"/><path fill="#a67c52" d="M 186.019531 185.265625 L 195.773438 185.265625 L 195.773438 209.460938 L 186.019531 209.460938 Z M 186.019531 185.265625 " fill-opacity="1" fill-rule="nonzero"/><path fill="#a67c52" d="M 172.414062 184.03125 L 261.21875 184.03125 L 261.21875 176.441406 L 172.414062 176.441406 Z M 172.414062 184.03125 " fill-opacity="1" fill-rule="nonzero"/><path fill="#a67c52" d="M 233.90625 185.265625 L 243.660156 185.265625 L 243.660156 209.460938 L 233.90625 209.460938 Z M 233.90625 185.265625 " fill-opacity="1" fill-rule="nonzero"/><path fill="#ffffff" d="M 202.484375 136.28125 C 201.3125 136.695312 200.222656 137.261719 199.207031 137.972656 C 198.191406 138.6875 197.289062 139.527344 196.503906 140.488281 C 195.71875 141.449219 195.078125 142.5 194.582031 143.636719 C 194.085938 144.773438 193.753906 145.957031 193.582031 147.1875 C 193.300781 149.417969 193.644531 151.816406 194.996094 153.605469 C 196.347656 155.390625 198.847656 156.421875 200.949219 155.628906 C 203.460938 151.914062 205.921875 147.769531 205.777344 143.285156 C 205.699219 140.742188 204.21875 138.15625 202.484375 136.28125 Z M 202.484375 136.28125 " fill-opacity="1" fill-rule="nonzero"/><path fill="#4e6b75" d="M 160.765625 113.839844 C 162.039062 114.855469 163.355469 115.949219 164.050781 117.425781 C 164.746094 118.898438 164.621094 120.910156 163.335938 121.90625 C 162.382812 122.640625 160.996094 122.703125 160.164062 123.574219 C 159.433594 124.339844 159.351562 125.515625 159.488281 126.570312 C 159.628906 127.625 159.910156 128.671875 159.785156 129.71875 C 159.726562 130.136719 159.609375 130.535156 159.425781 130.914062 C 159.246094 131.292969 159.011719 131.632812 158.722656 131.941406 C 158.4375 132.246094 158.109375 132.503906 157.742188 132.707031 C 157.378906 132.914062 156.988281 133.058594 156.578125 133.144531 C 155.644531 133.320312 154.515625 133.234375 153.949219 133.992188 C 153.328125 134.828125 153.894531 136.019531 154.605469 136.78125 C 155.570312 137.800781 156.714844 138.542969 158.039062 139.011719 C 159.363281 139.476562 160.71875 139.617188 162.113281 139.429688 C 163.515625 139.226562 165.511719 138.628906 165.851562 137.140625 C 166.277344 135.273438 165.851562 132.785156 165.851562 130.859375 C 165.851562 129.722656 167.539062 129.097656 168.648438 128.921875 C 169.757812 128.75 170.976562 128.769531 171.941406 128.175781 C 173.386719 127.289062 173.78125 125.28125 173.292969 123.65625 C 172.808594 122.03125 171.65625 120.714844 170.523438 119.453125 C 169.226562 118.007812 167.90625 116.558594 166.308594 115.457031 C 164.648438 114.273438 162.800781 113.738281 160.765625 113.839844 Z M 160.765625 113.839844 " fill-opacity="1" fill-rule="nonzero"/><path fill="#4e6b75" d="M 179.398438 206.453125 C 165.945312 207.863281 144.019531 209.050781 135.910156 199.566406 C 113.613281 173.46875 142.835938 139.511719 142.835938 139.511719 C 142.769531 139.566406 135.742188 145.105469 130 155.074219 C 124.707031 164.25 119.441406 179.175781 124.398438 198.167969 C 126.601562 206.613281 133.59375 208.230469 142.503906 209.460938 L 163.164062 209.460938 C 167.933594 208.976562 172.664062 208.238281 177.355469 207.246094 C 178.078125 207.089844 178.757812 206.824219 179.398438 206.453125 Z M 179.398438 206.453125 " fill-opacity="1" fill-rule="nonzero"/><path fill="#4e6b75" d="M 186.808594 172.007812 C 184.550781 173.742188 181.304688 173.554688 178.660156 172.5 C 176.015625 171.445312 173.730469 169.660156 171.226562 168.304688 C 170.363281 167.78125 169.429688 167.460938 168.429688 167.335938 C 167.4375 167.265625 166.363281 167.613281 165.789062 168.429688 C 164.910156 169.699219 165.53125 171.433594 165.367188 172.96875 C 165.097656 175.558594 162.085938 177.46875 159.625 176.609375 C 162.242188 179.457031 164.191406 182.707031 165.472656 186.359375 C 168.09375 187.296875 170.589844 188.636719 173.210938 189.570312 C 174.613281 188.015625 175.878906 186.632812 177.265625 185.078125 C 175.402344 185.257812 173.433594 184.78125 171.691406 184.097656 C 171.277344 181.402344 171.457031 178.746094 172.238281 176.132812 L 172.472656 176.351562 C 175.4375 176.171875 178.261719 175.746094 181.222656 175.566406 C 182.367188 175.496094 183.53125 175.421875 184.578125 174.957031 C 185.625 174.496094 186.695312 173.144531 186.808594 172.007812 Z M 186.808594 172.007812 " fill-opacity="1" fill-rule="nonzero"/><path fill="#afb9bc" d="M 140.050781 187.878906 C 140.050781 187.878906 141.691406 178.222656 150.90625 177.746094 C 161.109375 177.210938 159.191406 185.550781 163.179688 188.175781 C 165.933594 189.914062 168.839844 191.339844 171.898438 192.449219 L 172.855469 189.191406 L 165.335938 185.742188 C 165.335938 185.742188 162.53125 174.257812 152.582031 175.203125 C 142.636719 176.148438 138.4375 185.0625 140.050781 187.878906 Z M 140.050781 187.878906 " fill-opacity="1" fill-rule="nonzero"/><path fill="#afb9bc" d="M 201.054688 132.164062 C 199.574219 127.660156 197.898438 122.554688 193.265625 118.871094 C 187.015625 113.902344 178.089844 113.394531 175.308594 113.363281 C 175.695312 114.148438 176.035156 114.960938 176.320312 115.789062 C 176.320312 115.789062 187.976562 116.851562 193.015625 121.945312 C 198.050781 127.042969 202.554688 137.230469 202.554688 137.230469 L 202.617188 136.554688 C 202.042969 135.15625 201.554688 133.683594 201.054688 132.164062 Z M 201.054688 132.164062 " fill-opacity="1" fill-rule="nonzero"/><path fill="#afb9bc" d="M 165.828125 104.792969 C 169.738281 104.117188 173.9375 103.488281 177.523438 105.195312 C 178.300781 105.578125 179.019531 106.054688 179.671875 106.628906 C 180.324219 107.199219 180.890625 107.847656 181.371094 108.570312 C 181.851562 109.289062 182.234375 110.0625 182.511719 110.882812 C 182.789062 111.707031 182.957031 112.550781 183.011719 113.414062 C 184.195312 113.488281 185.144531 113.714844 186.328125 113.789062 C 185.992188 109.257812 182.636719 104.875 178.472656 103.046875 C 177.4375 102.609375 176.363281 102.316406 175.25 102.171875 C 174.136719 102.023438 173.023438 102.027344 171.910156 102.179688 C 170.796875 102.332031 169.722656 102.632812 168.691406 103.074219 C 167.660156 103.519531 166.703125 104.09375 165.828125 104.792969 Z M 165.828125 104.792969 " fill-opacity="1" fill-rule="nonzero"/><path fill="#afb9bc" d="M 176.175781 120.183594 C 175.027344 112.738281 170.457031 107.085938 164.234375 105.421875 C 159.78125 104.234375 155.027344 105.210938 150.851562 108.171875 C 146.675781 111.128906 143.523438 115.792969 142.066406 121.226562 C 141.777344 122.316406 141.5625 123.417969 141.417969 124.535156 L 141.488281 124.570312 C 141.488281 124.570312 146.277344 107.761719 159.226562 106.691406 C 170.652344 105.757812 176.175781 120.183594 176.175781 120.183594 Z M 176.175781 120.183594 " fill-opacity="1" fill-rule="nonzero"/><path fill="#c69c6d" d="M 172.507812 178.308594 L 261.21875 178.308594 L 261.21875 176.441406 L 172.488281 176.351562 Z M 172.507812 178.308594 " fill-opacity="1" fill-rule="nonzero"/><path fill="#754c24" d="M 172.488281 181.390625 L 261.21875 181.390625 L 261.21875 184.03125 L 172.414062 184.03125 Z M 172.488281 181.390625 " fill-opacity="1" fill-rule="nonzero"/><path fill="#754c24" d="M 185.425781 189.945312 L 196.234375 189.945312 L 195.773438 185.265625 L 186.019531 185.265625 Z M 185.425781 189.945312 " fill-opacity="1" fill-rule="nonzero"/><path fill="#754c24" d="M 233.90625 189.871094 L 243.457031 189.871094 L 243.660156 185.265625 L 233.90625 185.265625 Z M 233.90625 189.871094 " fill-opacity="1" fill-rule="nonzero"/><path fill="#754c24" d="M 236.484375 185.796875 L 236.484375 210.105469 L 233.90625 209.460938 L 233.90625 185.265625 Z M 236.484375 185.796875 " fill-opacity="1" fill-rule="nonzero"/><path fill="#754c24" d="M 188.75 185.207031 L 188.75 210.042969 L 186.019531 209.460938 L 185.398438 184.03125 Z M 188.75 185.207031 " fill-opacity="1" fill-rule="nonzero"/><path fill="#ffcaca" d="M 194.441406 171.910156 L 238.898438 171.910156 L 238.898438 170.777344 L 194.121094 170.777344 Z M 194.441406 171.910156 " fill-opacity="1" fill-rule="nonzero"/><path fill="#db5656" d="M 239.511719 169.542969 L 256.84375 140.558594 C 257.277344 141.300781 257.492188 142.101562 257.492188 142.957031 C 257.492188 143.816406 257.277344 144.613281 256.84375 145.355469 C 255.371094 147.898438 240.441406 173.46875 240.441406 173.46875 Z M 239.511719 169.542969 " fill-opacity="1" fill-rule="nonzero"/><path fill="#ffcaca" d="M 237.28125 169.914062 L 255.582031 138.257812 L 254.484375 137.367188 L 236.226562 169.542969 Z M 237.28125 169.914062 " fill-opacity="1" fill-rule="nonzero"/><path fill="#db5656" d="M 195.089844 173.222656 L 238.785156 173.222656 L 238.898438 174.609375 L 196.675781 174.609375 Z M 195.089844 173.222656 " fill-opacity="1" fill-rule="nonzero"/><g clip-path="url(#id1)"><path fill="#000000" d="M 262.761719 175.824219 C 262.761719 175.570312 262.671875 175.351562 262.492188 175.171875 C 262.3125 174.992188 262.09375 174.902344 261.839844 174.902344 L 240.773438 174.902344 L 257.636719 145.820312 C 257.882812 145.394531 258.085938 144.945312 258.242188 144.476562 C 258.398438 144.011719 258.507812 143.53125 258.566406 143.042969 C 258.628906 142.550781 258.636719 142.0625 258.597656 141.570312 C 258.558594 141.078125 258.46875 140.59375 258.332031 140.121094 C 258.191406 139.648438 258.007812 139.191406 257.777344 138.753906 C 257.546875 138.320312 257.273438 137.910156 256.960938 137.53125 C 256.644531 137.148438 256.296875 136.804688 255.914062 136.492188 C 255.527344 136.183594 255.117188 135.914062 254.679688 135.6875 C 254.457031 135.574219 254.230469 135.550781 253.992188 135.625 C 253.753906 135.695312 253.574219 135.835938 253.449219 136.054688 L 234.625 169.226562 L 193.464844 169.226562 C 193.207031 169.226562 192.988281 169.316406 192.808594 169.496094 C 192.628906 169.679688 192.539062 169.894531 192.539062 170.152344 C 192.539062 171.078125 192.746094 171.957031 193.160156 172.789062 C 193.570312 173.621094 194.144531 174.316406 194.878906 174.878906 L 186.378906 174.878906 C 186.957031 174.375 187.441406 173.792969 187.832031 173.132812 C 188.074219 172.730469 188.273438 172.308594 188.429688 171.867188 C 188.589844 171.425781 188.703125 170.972656 188.773438 170.507812 C 188.84375 170.042969 188.871094 169.574219 188.847656 169.105469 C 188.828125 168.636719 188.761719 168.175781 188.652344 167.71875 C 188.539062 167.261719 188.386719 166.820312 188.1875 166.394531 C 187.992188 165.96875 187.753906 165.566406 187.480469 165.183594 C 187.203125 164.804688 186.894531 164.453125 186.550781 164.132812 C 186.207031 163.816406 185.835938 163.53125 185.4375 163.28125 L 183.867188 162.296875 L 184.382812 162.296875 C 192.707031 162.296875 197.625 159.34375 200.371094 156.667969 C 203.820312 153.308594 204.671875 149.695312 204.703125 149.542969 C 204.707031 149.539062 204.707031 149.535156 204.703125 149.527344 C 204.839844 149.394531 204.972656 149.253906 205.101562 149.101562 C 205.636719 148.476562 205.929688 147.4375 206.074219 146.257812 C 207.324219 145.128906 207.894531 142.945312 207.375 140.660156 C 206.898438 138.585938 205.65625 136.976562 204.222656 136.339844 C 203.589844 134.914062 203.0625 133.300781 202.515625 131.65625 C 200.96875 126.949219 199.214844 121.609375 194.222656 117.632812 C 191.886719 115.824219 189.308594 114.476562 186.492188 113.582031 C 186.746094 109.414062 184.46875 105.21875 180.628906 102.867188 C 176.046875 100.078125 170.09375 100.429688 164.242188 103.839844 C 159.453125 102.695312 154.394531 103.765625 149.957031 106.914062 C 145.457031 110.105469 142.125 115.046875 140.578125 120.828125 C 139.035156 126.609375 139.460938 132.554688 141.78125 137.566406 C 141.875 137.773438 141.980469 137.976562 142.082031 138.183594 C 142.011719 138.214844 141.949219 138.25 141.890625 138.296875 C 141.59375 138.523438 134.585938 144.035156 128.6875 154.261719 C 123.601562 163.070312 118.550781 177.03125 122.035156 194.734375 C 121.71875 194.617188 121.390625 194.535156 121.054688 194.492188 C 120.382812 194.402344 119.71875 194.453125 119.066406 194.644531 C 118.417969 194.839844 117.832031 195.160156 117.320312 195.601562 C 115.386719 197.265625 114.574219 200.410156 115.394531 203.089844 C 116.160156 205.597656 118.3125 207.496094 120.746094 207.816406 C 121.007812 207.855469 121.273438 207.871094 121.542969 207.871094 C 122.546875 207.84375 123.511719 207.625 124.429688 207.222656 C 125.351562 206.820312 126.164062 206.261719 126.871094 205.546875 C 128.652344 207.214844 130.847656 208.339844 133.335938 209.152344 L 105.816406 209.152344 C 105.6875 209.144531 105.5625 209.160156 105.445312 209.207031 C 105.324219 209.25 105.21875 209.3125 105.125 209.402344 C 105.03125 209.488281 104.960938 209.589844 104.910156 209.707031 C 104.859375 209.824219 104.832031 209.949219 104.832031 210.074219 C 104.832031 210.203125 104.859375 210.324219 104.910156 210.441406 C 104.960938 210.558594 105.03125 210.660156 105.125 210.75 C 105.21875 210.835938 105.324219 210.902344 105.445312 210.945312 C 105.5625 210.988281 105.6875 211.007812 105.816406 211 L 257.511719 211 C 257.636719 211.007812 257.761719 210.988281 257.882812 210.945312 C 258 210.902344 258.109375 210.835938 258.199219 210.75 C 258.292969 210.660156 258.367188 210.558594 258.417969 210.441406 C 258.464844 210.324219 258.492188 210.203125 258.492188 210.074219 C 258.492188 209.949219 258.464844 209.824219 258.417969 209.707031 C 258.367188 209.589844 258.292969 209.488281 258.199219 209.402344 C 258.109375 209.3125 258 209.25 257.882812 209.207031 C 257.761719 209.160156 257.636719 209.144531 257.511719 209.152344 L 245.203125 209.152344 L 245.203125 185.574219 L 261.839844 185.574219 C 262.09375 185.574219 262.3125 185.484375 262.492188 185.304688 C 262.671875 185.121094 262.761719 184.90625 262.761719 184.652344 Z M 254.585938 137.820312 C 255.121094 138.21875 255.566406 138.699219 255.921875 139.261719 C 256.28125 139.828125 256.527344 140.433594 256.660156 141.089844 C 256.792969 141.742188 256.808594 142.398438 256.699219 143.058594 C 256.589844 143.714844 256.371094 144.335938 256.035156 144.910156 L 240.4375 171.808594 L 240.4375 170.183594 C 240.4375 169.925781 240.347656 169.710938 240.167969 169.527344 C 239.988281 169.347656 239.769531 169.257812 239.511719 169.257812 L 236.753906 169.257812 Z M 238.585938 171.085938 L 238.585938 174.292969 L 198.53125 174.292969 C 198.0625 174.292969 197.605469 174.214844 197.160156 174.0625 C 196.714844 173.90625 196.308594 173.683594 195.941406 173.390625 C 195.574219 173.097656 195.265625 172.753906 195.011719 172.355469 C 194.761719 171.960938 194.582031 171.53125 194.476562 171.074219 Z M 179.664062 104.472656 C 182.734375 106.359375 184.691406 109.757812 184.667969 113.066406 C 181.441406 112.21875 178.160156 111.800781 174.824219 111.816406 C 173.886719 110.214844 172.722656 108.796875 171.332031 107.570312 C 169.941406 106.339844 168.390625 105.359375 166.6875 104.628906 C 173.019531 101.511719 177.476562 103.128906 179.664062 104.472656 Z M 120.988281 205.984375 C 119.257812 205.757812 117.722656 204.375 117.164062 202.550781 C 116.570312 200.609375 117.164062 198.160156 118.515625 197.003906 C 119.175781 196.4375 119.933594 196.214844 120.796875 196.328125 C 121.570312 196.429688 122.179688 196.804688 122.625 197.445312 C 122.714844 197.816406 122.800781 198.191406 122.898438 198.566406 C 123.398438 200.636719 124.300781 202.511719 125.601562 204.195312 C 124.25 205.519531 122.546875 206.191406 120.988281 205.984375 Z M 124.703125 198.089844 C 119.773438 179.210938 125.003906 164.371094 130.257812 155.25 C 135.742188 145.734375 142.386719 140.273438 142.984375 139.792969 C 145.382812 143.660156 148.875 146.351562 153.023438 147.453125 C 154.378906 147.816406 155.757812 147.996094 157.160156 147.996094 C 158.125 147.996094 159.078125 147.914062 160.027344 147.746094 C 160.277344 147.699219 160.476562 147.570312 160.621094 147.359375 C 160.765625 147.148438 160.8125 146.917969 160.765625 146.664062 C 160.722656 146.414062 160.59375 146.214844 160.382812 146.070312 C 160.171875 145.925781 159.941406 145.878906 159.6875 145.925781 C 157.601562 146.296875 155.53125 146.210938 153.484375 145.667969 C 149.117188 144.503906 145.554688 141.351562 143.449219 136.789062 C 141.3125 132.171875 140.929688 126.65625 142.355469 121.304688 C 143.785156 115.953125 146.878906 111.367188 151.03125 108.4375 C 155.128906 105.535156 159.789062 104.574219 164.152344 105.734375 C 170.257812 107.363281 174.742188 112.925781 175.859375 120.257812 C 175.898438 120.511719 176.019531 120.710938 176.226562 120.863281 C 176.433594 121.015625 176.660156 121.070312 176.914062 121.03125 C 177.167969 120.992188 177.367188 120.871094 177.519531 120.664062 C 177.671875 120.460938 177.726562 120.230469 177.691406 119.976562 C 177.367188 117.796875 176.738281 115.707031 175.808594 113.707031 C 179.003906 113.796875 187.234375 114.492188 193.070312 119.136719 C 197.632812 122.765625 199.296875 127.824219 200.761719 132.289062 C 201.207031 133.636719 201.644531 134.960938 202.136719 136.199219 C 200.050781 136.753906 198.910156 139.539062 199.585938 142.488281 C 200.199219 145.191406 202.128906 147.105469 204.078125 147.101562 C 204.015625 147.414062 203.890625 147.699219 203.699219 147.953125 C 201.847656 150.117188 199.042969 149.769531 197.335938 148.347656 C 197.140625 148.195312 196.917969 148.136719 196.671875 148.164062 C 196.425781 148.191406 196.226562 148.300781 196.066406 148.492188 C 195.910156 148.679688 195.835938 148.898438 195.851562 149.144531 C 195.871094 149.390625 195.96875 149.597656 196.148438 149.765625 C 197.398438 150.800781 198.832031 151.320312 200.449219 151.328125 C 201.039062 151.328125 201.617188 151.246094 202.179688 151.082031 C 201.386719 152.734375 200.328125 154.199219 199.003906 155.472656 C 194.898438 159.421875 188.574219 161.101562 180.710938 160.316406 L 180.628906 160.316406 L 174.976562 156.730469 C 174.761719 156.605469 174.53125 156.574219 174.289062 156.632812 C 174.046875 156.691406 173.859375 156.828125 173.726562 157.039062 C 173.59375 157.25 173.554688 157.480469 173.605469 157.722656 C 173.65625 157.96875 173.785156 158.160156 173.992188 158.296875 L 184.46875 164.859375 C 184.765625 165.046875 185.039062 165.257812 185.296875 165.496094 C 185.550781 165.734375 185.78125 165.996094 185.988281 166.28125 C 186.191406 166.5625 186.367188 166.863281 186.515625 167.183594 C 186.660156 167.5 186.773438 167.828125 186.859375 168.167969 C 186.941406 168.507812 186.988281 168.855469 187.003906 169.203125 C 187.019531 169.554688 187.003906 169.902344 186.949219 170.246094 C 186.898438 170.59375 186.8125 170.929688 186.695312 171.261719 C 186.578125 171.589844 186.429688 171.90625 186.25 172.207031 C 186.078125 172.496094 185.878906 172.765625 185.65625 173.015625 C 185.433594 173.269531 185.191406 173.5 184.925781 173.707031 C 184.660156 173.914062 184.378906 174.09375 184.078125 174.25 C 183.78125 174.402344 183.46875 174.527344 183.148438 174.625 C 182.824219 174.722656 182.496094 174.789062 182.164062 174.828125 C 181.828125 174.863281 181.492188 174.867188 181.15625 174.84375 C 180.820312 174.816406 180.492188 174.761719 180.167969 174.675781 C 179.839844 174.585938 179.527344 174.472656 179.222656 174.328125 L 168.253906 169.019531 C 168.023438 168.914062 167.792969 168.90625 167.554688 168.992188 C 167.316406 169.074219 167.144531 169.230469 167.035156 169.457031 C 166.925781 169.683594 166.910156 169.917969 166.988281 170.15625 C 167.070312 170.394531 167.222656 170.570312 167.445312 170.6875 L 176.136719 174.890625 L 171.785156 174.890625 C 171.527344 174.890625 171.308594 174.980469 171.128906 175.160156 C 170.949219 175.34375 170.859375 175.558594 170.859375 175.816406 L 170.859375 184.640625 C 170.859375 184.894531 170.949219 185.113281 171.128906 185.292969 C 171.308594 185.476562 171.527344 185.566406 171.785156 185.566406 L 175.265625 185.566406 C 174.351562 186.402344 173.601562 187.363281 173.007812 188.449219 L 169.523438 187.410156 C 168.5 187.117188 167.605469 186.601562 166.84375 185.859375 C 166.082031 185.117188 165.542969 184.242188 165.222656 183.226562 C 163.59375 177.820312 158.683594 174.3125 152.722656 174.292969 L 152.683594 174.292969 C 150.71875 174.328125 148.835938 174.726562 147.027344 175.492188 C 145.222656 176.257812 143.625 177.332031 142.234375 178.714844 C 140.953125 179.960938 139.964844 181.40625 139.269531 183.054688 C 138.578125 184.703125 138.234375 186.417969 138.238281 188.207031 C 138.238281 188.460938 138.328125 188.679688 138.511719 188.859375 C 138.691406 189.042969 138.910156 189.132812 139.164062 189.132812 C 139.421875 189.132812 139.636719 189.042969 139.820312 188.859375 C 140 188.679688 140.089844 188.460938 140.089844 188.207031 C 140.089844 186.667969 140.390625 185.1875 140.992188 183.769531 C 141.589844 182.351562 142.445312 181.105469 143.554688 180.035156 C 144.765625 178.820312 146.164062 177.875 147.746094 177.203125 C 149.324219 176.53125 150.976562 176.179688 152.691406 176.148438 L 152.726562 176.148438 C 157.941406 176.167969 162.058594 179.085938 163.464844 183.765625 C 163.667969 184.410156 163.945312 185.023438 164.296875 185.601562 C 164.648438 186.179688 165.066406 186.703125 165.550781 187.175781 C 166.035156 187.652344 166.570312 188.058594 167.152344 188.398438 C 167.738281 188.738281 168.355469 189.003906 169.007812 189.1875 L 172.1875 190.136719 C 171.394531 192.019531 170.847656 193.96875 170.539062 195.984375 C 170.519531 196.109375 170.523438 196.230469 170.554688 196.351562 C 170.585938 196.472656 170.636719 196.585938 170.710938 196.683594 C 170.785156 196.785156 170.875 196.867188 170.984375 196.929688 C 171.09375 196.996094 171.207031 197.035156 171.332031 197.050781 C 171.457031 197.066406 171.578125 197.058594 171.699219 197.027344 C 171.820312 196.992188 171.929688 196.9375 172.027344 196.859375 C 172.125 196.78125 172.207031 196.6875 172.265625 196.578125 C 172.324219 196.46875 172.363281 196.351562 172.375 196.226562 C 172.390625 196.121094 173.890625 185.378906 180.238281 185.574219 C 181.992188 185.628906 183.617188 188.863281 183.992188 193.101562 C 184.523438 198.953125 182.640625 205.777344 177.273438 206.945312 C 172.605469 207.9375 167.898438 208.671875 163.152344 209.152344 L 142.523438 209.152344 C 133.738281 207.9375 126.851562 206.34375 124.699219 198.089844 Z M 232.359375 185.574219 L 232.359375 209.152344 L 197.316406 209.152344 L 197.316406 185.574219 Z M 195.46875 209.152344 L 186.3125 209.152344 L 186.3125 185.574219 L 195.46875 185.574219 Z M 184.476562 209.152344 L 175.742188 209.152344 C 176.546875 208.992188 177.199219 208.855469 177.667969 208.753906 C 180.964844 208.039062 183.175781 205.671875 184.476562 202.636719 Z M 184.476562 187.378906 C 184.195312 186.738281 183.84375 186.136719 183.425781 185.574219 L 184.476562 185.574219 Z M 243.351562 209.152344 L 234.210938 209.152344 L 234.210938 185.574219 L 243.351562 185.574219 Z M 260.917969 183.726562 L 172.738281 183.726562 L 172.738281 176.746094 L 260.917969 176.746094 Z M 260.917969 183.726562 " fill-opacity="1" fill-rule="nonzero"/></g><path fill="#000000" d="M 194.066406 130.894531 C 194.066406 131.195312 194.035156 131.488281 193.976562 131.78125 C 193.921875 132.070312 193.835938 132.355469 193.71875 132.628906 C 193.605469 132.90625 193.464844 133.167969 193.300781 133.414062 C 193.136719 133.660156 192.949219 133.890625 192.738281 134.101562 C 192.527344 134.3125 192.296875 134.5 192.050781 134.664062 C 191.804688 134.828125 191.542969 134.96875 191.265625 135.082031 C 190.992188 135.195312 190.707031 135.28125 190.414062 135.339844 C 190.125 135.398438 189.828125 135.429688 189.53125 135.429688 C 189.234375 135.429688 188.9375 135.398438 188.648438 135.339844 C 188.355469 135.28125 188.070312 135.195312 187.796875 135.082031 C 187.519531 134.96875 187.261719 134.828125 187.011719 134.664062 C 186.765625 134.5 186.535156 134.3125 186.324219 134.101562 C 186.113281 133.890625 185.925781 133.660156 185.761719 133.414062 C 185.597656 133.167969 185.457031 132.90625 185.34375 132.628906 C 185.230469 132.355469 185.144531 132.070312 185.085938 131.78125 C 185.027344 131.488281 184.996094 131.195312 184.996094 130.894531 C 184.996094 130.597656 185.027344 130.304688 185.085938 130.011719 C 185.144531 129.71875 185.230469 129.4375 185.34375 129.160156 C 185.457031 128.886719 185.597656 128.625 185.761719 128.378906 C 185.925781 128.128906 186.113281 127.902344 186.324219 127.691406 C 186.535156 127.480469 186.765625 127.292969 187.011719 127.128906 C 187.261719 126.960938 187.519531 126.824219 187.796875 126.707031 C 188.070312 126.59375 188.355469 126.507812 188.648438 126.449219 C 188.9375 126.394531 189.234375 126.363281 189.53125 126.363281 C 189.828125 126.363281 190.125 126.394531 190.414062 126.449219 C 190.707031 126.507812 190.992188 126.59375 191.265625 126.707031 C 191.542969 126.824219 191.804688 126.960938 192.050781 127.128906 C 192.296875 127.292969 192.527344 127.480469 192.738281 127.691406 C 192.949219 127.902344 193.136719 128.128906 193.300781 128.378906 C 193.464844 128.625 193.605469 128.886719 193.71875 129.160156 C 193.835938 129.4375 193.921875 129.71875 193.976562 130.011719 C 194.035156 130.304688 194.066406 130.597656 194.066406 130.894531 Z M 194.066406 130.894531 " fill-opacity="1" fill-rule="nonzero"/><g clip-path="url(#id2)"><path fill="#000000" d="M 269.511719 209.152344 L 263.519531 209.152344 C 263.394531 209.144531 263.269531 209.160156 263.148438 209.207031 C 263.03125 209.25 262.921875 209.3125 262.832031 209.402344 C 262.738281 209.488281 262.664062 209.589844 262.613281 209.707031 C 262.566406 209.824219 262.539062 209.949219 262.539062 210.074219 C 262.539062 210.203125 262.566406 210.324219 262.613281 210.441406 C 262.664062 210.558594 262.738281 210.660156 262.832031 210.75 C 262.921875 210.835938 263.03125 210.902344 263.148438 210.945312 C 263.269531 210.988281 263.394531 211.007812 263.519531 211 L 269.511719 211 C 269.636719 211.007812 269.761719 210.988281 269.882812 210.945312 C 270.003906 210.902344 270.109375 210.835938 270.203125 210.75 C 270.292969 210.660156 270.367188 210.558594 270.417969 210.441406 C 270.46875 210.324219 270.492188 210.203125 270.492188 210.074219 C 270.492188 209.949219 270.46875 209.824219 270.417969 209.707031 C 270.367188 209.589844 270.292969 209.488281 270.203125 209.402344 C 270.109375 209.3125 270.003906 209.25 269.882812 209.207031 C 269.761719 209.160156 269.636719 209.144531 269.511719 209.152344 Z M 269.511719 209.152344 " fill-opacity="1" fill-rule="nonzero"/></g><path fill="#000000" d="M 163.625 140.402344 C 164.078125 140.175781 164.492188 139.894531 164.867188 139.558594 C 165.242188 139.21875 165.570312 138.839844 165.84375 138.414062 C 166.117188 137.992188 166.332031 137.539062 166.484375 137.054688 C 166.636719 136.574219 166.726562 136.082031 166.746094 135.578125 C 166.746094 134.910156 166.679688 134.25 166.550781 133.597656 C 166.488281 133.226562 166.425781 132.871094 166.394531 132.527344 C 166.359375 132.105469 166.332031 131.066406 166.90625 130.566406 C 167.332031 130.1875 168.015625 130.136719 168.8125 130.074219 C 169.457031 130.050781 170.089844 129.949219 170.707031 129.769531 C 172.882812 129.046875 173.976562 126.679688 173.933594 124.703125 C 173.894531 123.011719 173.199219 121.265625 171.808594 119.390625 C 170.550781 117.707031 169.0625 116.265625 167.335938 115.070312 C 165.609375 113.871094 163.738281 112.976562 161.722656 112.390625 C 161.476562 112.316406 161.238281 112.34375 161.015625 112.46875 C 160.789062 112.59375 160.640625 112.777344 160.570312 113.027344 C 160.5 113.273438 160.523438 113.507812 160.648438 113.734375 C 160.773438 113.960938 160.957031 114.109375 161.207031 114.179688 C 163.03125 114.710938 164.722656 115.515625 166.285156 116.597656 C 167.84375 117.683594 169.191406 118.984375 170.328125 120.507812 C 171.484375 122.0625 172.0625 123.453125 172.089844 124.757812 C 172.121094 126.058594 171.445312 127.578125 170.125 128.023438 C 169.648438 128.15625 169.164062 128.226562 168.671875 128.246094 C 167.6875 128.320312 166.570312 128.402344 165.683594 129.191406 C 164.792969 129.976562 164.417969 131.195312 164.550781 132.703125 C 164.589844 133.125 164.660156 133.53125 164.726562 133.921875 C 164.835938 134.453125 164.890625 134.992188 164.898438 135.535156 C 164.878906 136.222656 164.683594 136.855469 164.308594 137.433594 C 163.933594 138.011719 163.4375 138.449219 162.816406 138.75 C 162.199219 139.046875 161.546875 139.164062 160.863281 139.101562 C 160.175781 139.035156 159.558594 138.796875 159.007812 138.386719 C 158.804688 138.273438 158.59375 138.242188 158.367188 138.289062 C 158.140625 138.335938 157.960938 138.453125 157.820312 138.636719 C 157.679688 138.820312 157.617188 139.027344 157.632812 139.253906 C 157.648438 139.484375 157.738281 139.683594 157.898438 139.84375 C 158.894531 140.570312 160.007812 140.933594 161.242188 140.925781 C 162.078125 140.933594 162.871094 140.757812 163.625 140.402344 Z M 163.625 140.402344 " fill-opacity="1" fill-rule="nonzero"/><path fill="#ffffff" d="M 193.167969 132.1875 C 193.167969 132.410156 193.125 132.621094 193.039062 132.824219 C 192.957031 133.027344 192.835938 133.207031 192.679688 133.363281 C 192.523438 133.519531 192.34375 133.640625 192.140625 133.722656 C 191.9375 133.808594 191.726562 133.851562 191.503906 133.851562 C 191.285156 133.851562 191.070312 133.808594 190.867188 133.722656 C 190.664062 133.640625 190.484375 133.519531 190.328125 133.363281 C 190.171875 133.207031 190.054688 133.027344 189.96875 132.824219 C 189.882812 132.621094 189.84375 132.410156 189.84375 132.1875 C 189.84375 131.96875 189.882812 131.757812 189.96875 131.554688 C 190.054688 131.351562 190.171875 131.171875 190.328125 131.015625 C 190.484375 130.859375 190.664062 130.738281 190.867188 130.65625 C 191.070312 130.570312 191.285156 130.527344 191.503906 130.527344 C 191.726562 130.527344 191.9375 130.570312 192.140625 130.65625 C 192.34375 130.738281 192.523438 130.859375 192.679688 131.015625 C 192.835938 131.171875 192.957031 131.351562 193.039062 131.554688 C 193.125 131.757812 193.167969 131.96875 193.167969 132.1875 Z M 193.167969 132.1875 " fill-opacity="1" fill-rule="nonzero"/></svg>